<svg xmlns="http://www.w3.org/2000/svg" viewBox="0 0 113.15 101.17"><defs><style>.cls-1{fill:#2783e3;}</style></defs><g id="图层_2" data-name="图层 2"><g id="图层_2-2" data-name="图层 2"><path class="cls-1" d="M39.92,84.57l-24-24-3.23,1,.07.08L38.62,87.52Z"/><path class="cls-1" d="M11.82,46.61a12.82,12.82,0,0,1,3.07-5l34.9-34.9a12.7,12.7,0,0,1,17.94,0L78.34,17.33l3.23-1L69.85,4.59a15.69,15.69,0,0,0-22.18,0l-34.9,34.9a15.53,15.53,0,0,0-4.31,8.18Z"/><path class="cls-1" d="M102.72,41.71a12.66,12.66,0,0,1-.09,17.84L76.81,85.37l1.3,2.94,26.64-26.64a15.65,15.65,0,0,0,1.1-21Z"/><path class="cls-1" d="M72.26,89.92l-4.53,4.53a12.67,12.67,0,0,1-17.94,0l-5.32-5.33-1.3,2.95,4.5,4.5a15.67,15.67,0,0,0,22.18,0l3.71-3.71Z"/><path class="cls-1" d="M81.72,69.87l-5.59-5.59a.93.93,0,0,1,0-1.31l5.59-5.59a.93.93,0,0,1,1.31,0L88.62,63a.93.93,0,0,1,0,1.31L83,69.87A.93.93,0,0,1,81.72,69.87ZM80.1,63.63l2.28,2.27,2.27-2.27-2.27-2.28Z"/><path class="cls-1" d="M113.08,40.27,102.93,7.94a1.5,1.5,0,0,0-2.87.89l1.4,4.45L73.18,22.1l7.36,23.43,28.28-8.82,1.4,4.46a1.5,1.5,0,0,0,1.43,1,1.41,1.41,0,0,0,.45-.07A1.5,1.5,0,0,0,113.08,40.27Z"/><path class="cls-1" d="M31.84,43.47,4.39,52.13,2.93,47.49a1.5,1.5,0,1,0-2.86.89L5.53,65.76a1.5,1.5,0,0,0,1.43,1,1.41,1.41,0,0,0,.45-.07,1.49,1.49,0,0,0,1-1.88L7,60.3,34.4,51.63Z"/><path class="cls-1" d="M62.45,56.52a7.32,7.32,0,0,0,3-5.94A7.2,7.2,0,0,0,64.56,47l12.1-3.8-5.33-17-38,11.94,5.34,17,12.27-3.86a7.34,7.34,0,0,0,3,5.23L35.2,99a1.48,1.48,0,0,0,.76,2,1.46,1.46,0,0,0,.61.13,1.5,1.5,0,0,0,1.37-.89L56.67,57.74a7.3,7.3,0,0,0,3,0l18.73,42.47a1.5,1.5,0,0,0,1.37.89,1.46,1.46,0,0,0,.61-.13,1.5,1.5,0,0,0,.77-2ZM58.19,54.9a4.32,4.32,0,1,1,4.31-4.32A4.32,4.32,0,0,1,58.19,54.9Z"/></g></g></svg>