<svg id="Icon" xmlns="http://www.w3.org/2000/svg" viewBox="0 0 113.16 100.64"><defs><style>.cls-1{fill:#2783e3;}</style></defs><path class="cls-1" d="M74.21,75.13l-5.59-5.59a.93.93,0,0,1,0-1.31l5.59-5.59a.93.93,0,0,1,1.31,0l5.59,5.62a.93.93,0,0,1,0,1.31l-5.62,5.56A.93.93,0,0,1,74.21,75.13Zm-1.62-6.24,2.28,2.27,2.27-2.27-2.27-2.28Z" transform="translate(0.01 -0.27)"/><path class="cls-1" d="M12,60.35l3.22-1-4-4a6.7,6.7,0,0,1,0-9.49L51.83,5.23a6.7,6.7,0,0,1,9.49,0L85.1,29l3.24-1L63.44,3.1a9.73,9.73,0,0,0-13.73,0L9.09,43.72a9.72,9.72,0,0,0,0,13.73Z" transform="translate(0.01 -0.27)"/><path class="cls-1" d="M101.29,56l-40,40a6.7,6.7,0,0,1-9.49,0l-25-25-3.22,1,26.1,26.11a9.72,9.72,0,0,0,13.73,0l40.62-40.62a9.72,9.72,0,0,0,2-3Z" transform="translate(0.01 -0.27)"/><g id="spyglass"><path class="cls-1" d="M113.1,54,103,21.7a1.5,1.5,0,1,0-2.87.89l1.4,4.45L73.2,35.86l7.36,23.43,28.28-8.82,1.4,4.46a1.49,1.49,0,0,0,1.43,1,1.18,1.18,0,0,0,.45-.07A1.5,1.5,0,0,0,113.1,54Z" transform="translate(0.01 -0.27)"/><path class="cls-1" d="M31.86,57.23,4.41,65.89,3,61.25A1.5,1.5,0,0,0,0,62a.75.75,0,0,0,0,.16L5.55,79.52a1.49,1.49,0,0,0,1.43,1,1.18,1.18,0,0,0,.45-.07,1.49,1.49,0,0,0,1-1.85v0L7,74.06l27.4-8.67Z" transform="translate(0.01 -0.27)"/><path class="cls-1" d="M76.68,57,71.35,40l-38,11.94,5.34,17" transform="translate(0.01 -0.27)"/></g></svg>